<svg width="16" height="16" viewBox="0 0 16 16" fill="none" xmlns="http://www.w3.org/2000/svg">
<path fill-rule="evenodd" clip-rule="evenodd" d="M3.85799 2.14402C3.83573 1.13374 3.11328 0.364258 1.94012 0.364258C0.766968 0.364258 0 1.13374 0 2.14402C0 3.13337 0.744299 3.92501 1.89561 3.92501H1.91752C3.11328 3.92501 3.85799 3.13337 3.85799 2.14402ZM3.63228 5.33139H0.202942V15.6351H3.63228V5.33139ZM12.0511 5.08943C14.3078 5.08943 15.9996 6.5624 15.9996 9.72727L15.9995 15.6351H12.5703V10.1226C12.5703 8.73799 12.074 7.79316 10.8326 7.79316C9.88516 7.79316 9.32084 8.43011 9.07299 9.04532C8.98232 9.26579 8.96006 9.57299 8.96006 9.88093V15.6354H5.53031C5.53031 15.6354 5.57551 6.2985 5.53031 5.33165H8.96006V6.79109C9.41521 6.08951 10.2304 5.08943 12.0511 5.08943Z" fill="white"/>
</svg>
