<svg width="21" height="20" viewBox="0 0 21 20" fill="none" xmlns="http://www.w3.org/2000/svg">
<path fill-rule="evenodd" clip-rule="evenodd" d="M11.9738 1.67336C11.7879 1.64671 11.6012 1.70167 11.4526 1.81992C11.2999 1.93984 11.2045 2.11305 11.1837 2.30709C11.1397 2.69932 11.4227 3.05408 11.8144 3.09821C14.5158 3.39967 16.6155 5.50406 16.9193 8.21387C16.9599 8.57695 17.2645 8.85093 17.628 8.85093C17.6554 8.85093 17.682 8.84926 17.7094 8.84593C17.8994 8.82511 18.0687 8.73101 18.1882 8.58112C18.3069 8.43122 18.3608 8.24468 18.3393 8.05398C17.9608 4.67296 15.3441 2.04893 11.9738 1.67336ZM12.0256 4.57503C11.6289 4.50174 11.2646 4.7549 11.1891 5.14214C11.1136 5.52937 11.3675 5.90744 11.7534 5.98323C12.9153 6.20974 13.8125 7.10912 14.0399 8.27498V8.27582C14.1046 8.61142 14.4 8.85542 14.7403 8.85542C14.786 8.85542 14.8316 8.85126 14.8781 8.84293C15.264 8.76548 15.5179 8.38824 15.4424 8.00017C15.103 6.25887 13.7627 4.91396 12.0256 4.57503ZM13.344 12.5755C13.7202 12.3586 14.1451 12.1136 14.6811 12.2276C15.1666 12.33 16.8215 13.6733 17.2746 14.1388C17.5717 14.4436 17.7369 14.7583 17.7626 15.0731C17.8074 16.3081 16.1294 17.718 15.8239 17.8937C15.4181 18.186 14.9459 18.3334 14.4156 18.3334C13.8736 18.3334 13.2695 18.1793 12.6105 17.872C9.03521 16.3797 3.57352 11.0259 2.12946 7.47835C1.53026 6.15759 1.52611 5.06834 2.1195 4.24973C2.35603 3.86583 3.70465 2.2611 4.91218 2.3119C5.23336 2.33938 5.54541 2.50427 5.85165 2.80406C6.31474 3.25792 7.62435 4.91761 7.7256 5.40477C7.83764 5.94607 7.59198 6.37661 7.37372 6.75468C7.32716 6.83595 7.26444 6.9324 7.19572 7.03807C6.93491 7.43909 6.58778 7.97286 6.71061 8.31361C7.59115 10.4755 9.62528 12.3617 11.788 13.2477C12.1225 13.3693 12.656 13.0197 13.0557 12.7577C13.1599 12.6895 13.2549 12.6271 13.335 12.5807L13.344 12.5755Z" fill="white"/>
</svg>
