<svg width="16" height="12" viewBox="0 0 16 12" fill="none" xmlns="http://www.w3.org/2000/svg">
<path fill-rule="evenodd" clip-rule="evenodd" d="M14.251 0.984956C14.9395 1.16018 15.4816 1.67648 15.6656 2.33214C16 3.52044 16 5.99984 16 5.99984C16 5.99984 16 8.47915 15.6656 9.66754C15.4816 10.3232 14.9395 10.8395 14.251 11.0148C13.0034 11.3332 8 11.3332 8 11.3332C8 11.3332 2.99664 11.3332 1.74891 11.0148C1.06045 10.8395 0.518273 10.3232 0.334273 9.66754C0 8.47915 0 5.99984 0 5.99984C0 5.99984 0 3.52044 0.334273 2.33214C0.518273 1.67648 1.06045 1.16018 1.74891 0.984956C2.99664 0.666504 8 0.666504 8 0.666504C8 0.666504 13.0034 0.666504 14.251 0.984956ZM10.6667 5.99995L6.66667 2.99984V8.99984L10.6667 5.99995Z" fill="white"/>
</svg>
